<svg width="70" height="70" viewBox="0 0 70 70" fill="none" xmlns="http://www.w3.org/2000/svg">
    <path d="M48 25H22C21.7348 25 21.4804 25.1054 21.2929 25.2929C21.1054 25.4804 21 25.7348 21 26C21 26.2652 21.1054 26.5196 21.2929 26.7071C21.4804 26.8946 21.7348 27 22 27H48C48.2652 27 48.5196 26.8946 48.7071 26.7071C48.8946 26.5196 49 26.2652 49 26C49 25.7348 48.8946 25.4804 48.7071 25.2929C48.5196 25.1054 48.2652 25 48 25Z" fill="currend" fill-opacity="0.8" />
    <path d="M22 36H35C35.2652 36 35.5196 35.8946 35.7071 35.7071C35.8946 35.5196 36 35.2652 36 35C36 34.7348 35.8946 34.4804 35.7071 34.2929C35.5196 34.1054 35.2652 34 35 34H22C21.7348 34 21.4804 34.1054 21.2929 34.2929C21.1054 34.4804 21 34.7348 21 35C21 35.2652 21.1054 35.5196 21.2929 35.7071C21.4804 35.8946 21.7348 36 22 36Z" fill="currend" fill-opacity="0.8" />
    <path d="M44 43H22C21.7348 43 21.4804 43.1054 21.2929 43.2929C21.1054 43.4804 21 43.7348 21 44C21 44.2652 21.1054 44.5196 21.2929 44.7071C21.4804 44.8946 21.7348 45 22 45H44C44.2652 45 44.5196 44.8946 44.7071 44.7071C44.8946 44.5196 45 44.2652 45 44C45 43.7348 44.8946 43.4804 44.7071 43.2929C44.5196 43.1054 44.2652 43 44 43Z" fill="currend" fill-opacity="0.8" />
</svg>
    