<svg width="32" height="32" viewBox="0 0 32 32" fill="none" xmlns="http://www.w3.org/2000/svg">
<g clip-path="url(#clip0_119:525)">
<path d="M5 8.97754C3.896 8.97754 3 9.87354 3 10.9775V18.9775C3 20.0815 3.896 20.9775 5 20.9775C6.104 20.9775 7 20.0815 7 18.9775V10.9775C7 9.87254 6.104 8.97754 5 8.97754Z" fill="#0A0A0A" fill-opacity="0.15"/>
<path d="M27 8.97754C25.896 8.97754 25 9.87354 25 10.9775V18.9775C25 20.0815 25.896 20.9775 27 20.9775C28.104 20.9775 29 20.0815 29 18.9775V10.9775C29 9.87254 28.104 8.97754 27 8.97754Z" fill="#0A0A0A" fill-opacity="0.15"/>
<path d="M8 24.9775H10V29.9775C10 31.0815 10.896 31.9775 12 31.9775C13.104 31.9775 14 31.0815 14 29.9775V24.9775H18V29.9775C18 31.0815 18.896 31.9775 20 31.9775C21.104 31.9775 22 31.0815 22 29.9775V24.9775H24V9.97754H8V24.9775Z" fill="#0A0A0A" fill-opacity="0.15"/>
<path d="M20.723 2.52966L21.75 0.750661C21.889 0.510661 21.807 0.205661 21.566 0.0666609C21.328 -0.0723391 21.021 0.00966087 20.883 0.250661L19.882 1.98466C18.732 1.34466 17.41 0.977661 16 0.977661C14.591 0.977661 13.269 1.34466 12.118 1.98566L11.116 0.249661C10.977 0.0106609 10.673 -0.0713391 10.432 0.0666609C10.194 0.204661 10.112 0.509661 10.249 0.749661L11.277 2.52966C9.294 3.98566 8 6.32766 8 8.97766H24C24 6.32766 22.706 3.98566 20.723 2.52966ZM13 5.97766C12.447 5.97766 12 5.53066 12 4.97766C12 4.42466 12.447 3.97766 13 3.97766C13.553 3.97766 14 4.42466 14 4.97766C14 5.53066 13.553 5.97766 13 5.97766ZM19 5.97766C18.447 5.97766 18 5.53066 18 4.97766C18 4.42466 18.447 3.97766 19 3.97766C19.553 3.97766 20 4.42466 20 4.97766C20 5.53066 19.553 5.97766 19 5.97766Z" fill="#0A0A0A" fill-opacity="0.15"/>
</g>
<defs>
<clipPath id="clip0_119:525">
<rect width="32" height="32" fill="white"/>
</clipPath>
</defs>
</svg>
