<svg width="26" height="32" viewBox="0 0 26 32" fill="none" xmlns="http://www.w3.org/2000/svg">
<g clip-path="url(#clip0_119:521)">
<path d="M21.5782 16.9587C21.5385 12.9658 24.8343 11.0506 24.9817 10.9539C23.1294 8.24557 20.2436 7.87395 19.2165 7.83166C16.7625 7.58242 14.4258 9.27713 13.1809 9.27713C11.9386 9.27713 10.0151 7.86819 7.98019 7.90407C5.30327 7.94379 2.83585 9.46102 1.45831 11.8573C-1.32178 16.68 0.747107 23.8272 3.45607 27.7414C4.78044 29.6546 6.35981 31.8074 8.4319 31.7286C10.429 31.6498 11.1825 30.4369 13.5967 30.4369C16.011 30.4369 16.6889 31.7286 18.8013 31.6882C20.949 31.6491 22.3105 29.7385 23.624 27.8176C25.1444 25.595 25.7704 23.4428 25.8076 23.3339C25.7608 23.3121 21.6211 21.7263 21.5782 16.9587Z" fill="#0A0A0A" fill-opacity="0.15"/>
<path d="M17.6089 5.24086C18.7078 3.90688 19.4523 2.05328 19.2498 0.208008C17.664 0.27208 15.7444 1.26199 14.6059 2.59469C13.5858 3.77746 12.694 5.66053 12.933 7.47249C14.702 7.6096 16.5062 6.57228 17.6089 5.24086Z" fill="#0A0A0A" fill-opacity="0.15"/>
</g>
<defs>
<clipPath id="clip0_119:521">
<rect width="25.9459" height="32" fill="white"/>
</clipPath>
</defs>
</svg>
