<svg width="18" height="19" viewBox="0 0 18 19" xmlns="http://www.w3.org/2000/svg">
    <path fill-rule="evenodd" clip-rule="evenodd" d="M12.548 10.9482L3 10.9482C2.44772 10.9482 2 10.5005 2 9.94818C2 9.3959 2.44772 8.94818 3 8.94818L12.5478 8.94818L9.754 6.21479C9.35923 5.82855 9.35232 5.19542 9.73855 4.80066C10.1248 4.40589 10.7579 4.39898 11.1527 4.78521L15.6851 9.21966C15.6951 9.22914 15.705 9.23886 15.7148 9.24884C15.8112 9.34735 15.8831 9.4607 15.9306 9.58136C15.9699 9.6811 15.9937 9.78869 15.9989 9.90113C16.0002 9.92799 16.0003 9.95489 15.9994 9.98175C15.9955 10.1028 15.97 10.2183 15.9267 10.3247C15.8765 10.4483 15.8007 10.5638 15.6994 10.663L11.153 15.1111C10.7582 15.4974 10.1251 15.4905 9.73883 15.0957C9.35259 14.7009 9.3595 14.0678 9.75427 13.6816L12.548 10.9482Z" fill="current" />
</svg>