<svg width="32" height="32" viewBox="0 0 32 32" fill="none" xmlns="http://www.w3.org/2000/svg">
<path d="M16.0001 9.75879C12.613 9.75879 9.80664 12.5168 9.80664 15.9522C9.80664 19.3877 12.5647 22.1457 16.0001 22.1457C19.4355 22.1457 22.1935 19.3393 22.1935 15.9522C22.1935 12.5652 19.3871 9.75879 16.0001 9.75879ZM16.0001 19.9199C13.8227 19.9199 12.0324 18.1296 12.0324 15.9522C12.0324 13.7749 13.8227 11.9846 16.0001 11.9846C18.1775 11.9846 19.9678 13.7749 19.9678 15.9522C19.9678 18.1296 18.1775 19.9199 16.0001 19.9199Z" fill="white" fill-opacity="0.9"/>
<path d="M22.4361 11.0168C23.2112 11.0168 23.8395 10.3885 23.8395 9.61337C23.8395 8.83829 23.2112 8.20996 22.4361 8.20996C21.661 8.20996 21.0327 8.83829 21.0327 9.61337C21.0327 10.3885 21.661 11.0168 22.4361 11.0168Z" fill="white" fill-opacity="0.9"/>
<path d="M26.0645 5.98396C24.8065 4.67745 23.0161 4 20.9839 4H11.0161C6.80645 4 4 6.80658 4 11.0164V20.9362C4 23.017 4.67742 24.8074 6.03226 26.1139C7.33871 27.372 9.08065 28.0011 11.0645 28.0011H20.9355C23.0161 28.0011 24.7581 27.3236 26.0161 26.1139C27.3226 24.8558 28 23.0654 28 20.9846V11.0164C28 8.98409 27.3226 7.24208 26.0645 5.98396ZM25.871 20.9846C25.871 22.4847 25.3387 23.6944 24.4677 24.517C23.5968 25.3397 22.3871 25.7752 20.9355 25.7752H11.0645C9.6129 25.7752 8.40323 25.3397 7.53226 24.517C6.66129 23.646 6.22581 22.4363 6.22581 20.9362V11.0164C6.22581 9.56476 6.66129 8.35503 7.53226 7.48403C8.35484 6.66141 9.6129 6.22591 11.0645 6.22591H21.0323C22.4839 6.22591 23.6935 6.66141 24.5645 7.53242C25.3871 8.40342 25.871 9.61315 25.871 11.0164V20.9846Z" fill="white" fill-opacity="0.9"/>
</svg>
