<svg width="32" height="32" viewBox="0 0 32 32" fill="none" xmlns="http://www.w3.org/2000/svg">
<path fill-rule="evenodd" clip-rule="evenodd" d="M5.95336 16.5364L5.86708 16.6721C5.79104 16.7892 5.87528 16.9453 6.01912 16.9453H11.3698C11.4294 16.9453 11.4849 16.9166 11.5178 16.8673C11.5877 16.7604 11.6534 16.6495 11.713 16.5364C12.1754 15.7597 12.5863 14.9193 12.7363 14.2987C13.0877 12.7905 12.3377 10.3679 11.4685 8.4199C11.411 8.29046 11.2322 8.27814 11.1562 8.3973L5.95336 16.5364ZM29.0577 18.1844V19.4728C29.0577 19.5467 29.0125 19.6125 28.9467 19.6412C28.544 19.8138 27.1652 20.4467 26.5919 21.244C26.273 21.6879 25.9704 22.1734 25.6664 22.6613C24.5759 24.4114 23.4664 26.192 21.5124 26.192H11.0883C7.39378 26.192 4.3999 23.1879 4.3999 19.481V19.3618C4.3999 19.2632 4.48002 19.183 4.57866 19.183H10.3897C10.5047 19.183 10.589 19.2899 10.5787 19.4029C10.5376 19.781 10.6075 20.1673 10.7863 20.5186C11.1315 21.2194 11.8465 21.657 12.6191 21.657H15.4959V19.4111H12.652C12.5061 19.4111 12.4199 19.2426 12.5041 19.1234C12.5212 19.0972 12.5395 19.0704 12.5588 19.0422C12.5743 19.0196 12.5904 18.9961 12.6068 18.9714C12.876 18.5892 13.2603 17.9954 13.6425 17.3193C13.9034 16.8632 14.1561 16.3762 14.3596 15.8871C14.3973 15.806 14.4281 15.7232 14.4583 15.6418L14.4664 15.62C14.4809 15.5791 14.4956 15.539 14.51 15.4994C14.5509 15.3875 14.5902 15.2798 14.6205 15.172C14.6541 15.0714 14.6821 14.9667 14.7092 14.8657L14.7274 14.798C14.824 14.383 14.8651 13.9432 14.8651 13.4871C14.8651 13.3083 14.8569 13.1213 14.8404 12.9426C14.8322 12.7474 14.8075 12.5521 14.7829 12.3569C14.7664 12.1843 14.7356 12.0138 14.7027 11.835C14.6617 11.574 14.6041 11.3152 14.5383 11.0542L14.5157 10.9556C14.5011 10.9024 14.4872 10.8501 14.4733 10.798C14.4406 10.6748 14.4082 10.553 14.3678 10.4275C14.2055 9.86648 14.0185 9.31992 13.8212 8.80828C13.7493 8.60485 13.6671 8.40966 13.5849 8.21447C13.4897 7.98351 13.3931 7.76903 13.3012 7.56509L13.3007 7.56386C13.2759 7.50875 13.2514 7.45441 13.2274 7.40072C13.1699 7.28564 13.1205 7.18084 13.0712 7.074C13.0157 6.95276 12.9582 6.83152 12.9007 6.71648C12.8845 6.68176 12.8674 6.64799 12.8506 6.6148C12.8247 6.56353 12.7994 6.51361 12.7794 6.46372L12.4281 5.8144C12.3787 5.72604 12.4609 5.62124 12.5575 5.64796L14.7562 6.24384H14.7623C14.7647 6.24384 14.7678 6.24514 14.7678 6.24514L14.7694 6.24572L14.7705 6.24592L15.0603 6.32604L15.3788 6.41648L15.4959 6.44932V5.14248C15.4959 4.51164 16.0014 4 16.6261 4C16.9384 4 17.2219 4.1274 17.4254 4.33492C17.6288 4.54248 17.7562 4.82604 17.7562 5.14248V7.08224L17.9905 7.14796C18.0089 7.15416 18.0274 7.16236 18.0439 7.17468C18.0662 7.19142 18.0922 7.21125 18.1218 7.23381C18.1686 7.26941 18.2242 7.31183 18.2884 7.35964C18.3217 7.38625 18.356 7.41522 18.3921 7.44574C18.4452 7.4906 18.5022 7.5388 18.5658 7.58772C18.7774 7.75824 19.0302 7.97812 19.3076 8.23088C19.3815 8.29456 19.4535 8.36032 19.5192 8.42608C19.8768 8.75896 20.2775 9.14936 20.6597 9.58088C20.7665 9.70212 20.8713 9.8254 20.9781 9.95484C21.016 10.0014 21.0546 10.0477 21.093 10.0939C21.1632 10.178 21.2329 10.2616 21.2966 10.3453C21.3205 10.3771 21.3447 10.4092 21.3691 10.4414C21.477 10.5841 21.5882 10.7311 21.6871 10.8836C21.7121 10.9221 21.7387 10.9609 21.7653 10.9998C21.7999 11.0503 21.8345 11.1009 21.8658 11.1508C22.022 11.387 22.1597 11.6316 22.2912 11.8761C22.3467 11.9891 22.4042 12.1124 22.4535 12.2336C22.5994 12.5604 22.7145 12.8932 22.7884 13.2261C22.811 13.298 22.8275 13.3761 22.8357 13.446V13.4624C22.8603 13.561 22.8686 13.6658 22.8768 13.7727C22.9097 14.1138 22.8932 14.4549 22.8193 14.798C22.7884 14.944 22.7473 15.0816 22.698 15.2275L22.6815 15.2745C22.6375 15.3997 22.5923 15.5285 22.5357 15.6508C22.4124 15.9364 22.2665 16.222 22.0939 16.4892C22.0384 16.5878 21.9727 16.6926 21.9069 16.7912C21.8718 16.8424 21.8362 16.892 21.8013 16.9407C21.7648 16.9917 21.7289 17.0418 21.6953 17.0912C21.6049 17.2145 21.5083 17.344 21.4097 17.459C21.3213 17.5803 21.2309 17.7015 21.1323 17.8084C20.9946 17.9707 20.8631 18.1248 20.7254 18.2728C20.6432 18.3693 20.5549 18.468 20.4644 18.5563C20.3887 18.6408 20.3115 18.7178 20.2392 18.7899L20.2035 18.8255C20.0658 18.9632 19.9507 19.07 19.8541 19.1584L19.6281 19.3659C19.5953 19.3947 19.5521 19.4111 19.5069 19.4111H17.7562V21.657H19.9589C20.4521 21.657 20.9206 21.4824 21.2987 21.1618L21.3089 21.1529C21.4556 21.0249 22.0094 20.5419 22.661 19.8221C22.6836 19.7974 22.7124 19.7789 22.7453 19.7707L28.8296 18.0118C28.9426 17.9789 29.0577 18.0652 29.0577 18.1844Z" fill="#0A0A0A"/>
</svg>
