<svg width="30" height="30" viewBox="0 0 30 30" fill="none" xmlns="http://www.w3.org/2000/svg">
<path fill-rule="evenodd" clip-rule="evenodd" d="M5.25 1.5C3.17893 1.5 1.5 3.17893 1.5 5.25V24.75C1.5 26.8211 3.17893 28.5 5.25 28.5H24.75C26.8211 28.5 28.5 26.8211 28.5 24.75V5.25C28.5 3.17893 26.8211 1.5 24.75 1.5H5.25ZM14.6558 19.089C16.7778 19.089 18.498 17.3342 18.498 15.1695C18.498 13.0048 16.7778 11.25 14.6558 11.25C12.5338 11.25 10.8136 13.0048 10.8136 15.1695C10.8136 17.3342 12.5338 19.089 14.6558 19.089ZM7.64358 11.6824C7.55822 11.5315 7.34481 11.5315 7.25945 11.6824L3.40504 18.4927C3.31968 18.6435 3.42638 18.832 3.59711 18.832H11.3059C11.4766 18.832 11.5833 18.6435 11.498 18.4927L7.64358 11.6824ZM19.0013 11.9362C19.0013 11.6863 19.1999 11.4838 19.4448 11.4838H25.7847C26.0297 11.4838 26.2283 11.6863 26.2283 11.9362V18.4036C26.2283 18.6536 26.0297 18.8561 25.7847 18.8561H19.4448C19.1999 18.8561 19.0013 18.6536 19.0013 18.4036V11.9362Z" fill="white" fill-opacity="0.2"/>
</svg>
