<svg width="30" height="30" viewBox="0 0 30 30" fill="none" xmlns="http://www.w3.org/2000/svg">
<path d="M15.1215 8.29651C11.4179 8.29651 8.34921 11.3123 8.34921 15.0688C8.34921 18.8253 11.365 21.841 15.1215 21.841C18.878 21.841 21.8937 18.7724 21.8937 15.0688C21.8937 11.3652 18.8251 8.29651 15.1215 8.29651ZM15.1215 19.4073C12.7406 19.4073 10.783 17.4497 10.783 15.0688C10.783 12.6879 12.7406 10.7303 15.1215 10.7303C17.5024 10.7303 19.46 12.6879 19.46 15.0688C19.46 17.4497 17.5024 19.4073 15.1215 19.4073Z" fill="white" fill-opacity="0.2"/>
<path d="M22.1592 9.67229C23.0067 9.67229 23.6937 8.98524 23.6937 8.13772C23.6937 7.2902 23.0067 6.60315 22.1592 6.60315C21.3117 6.60315 20.6246 7.2902 20.6246 8.13772C20.6246 8.98524 21.3117 9.67229 22.1592 9.67229Z" fill="white" fill-opacity="0.2"/>
<path d="M26.1266 4.16937C24.751 2.74076 22.7933 2 20.5711 2H9.67184C5.06873 2 2 5.06887 2 9.67218V20.5191C2 22.7942 2.74073 24.752 4.22219 26.1806C5.65074 27.5563 7.55547 28.2441 9.72475 28.2441H20.5182C22.7933 28.2441 24.6981 27.5034 26.0737 26.1806C27.5022 24.8049 28.243 22.8472 28.243 20.572V9.67218C28.243 7.44989 27.5022 5.54508 26.1266 4.16937ZM25.915 20.572C25.915 22.2122 25.333 23.535 24.3806 24.4345C23.4282 25.334 22.1055 25.8102 20.5182 25.8102H9.72475C8.13747 25.8102 6.81474 25.334 5.86237 24.4345C4.91001 23.4821 4.43382 22.1593 4.43382 20.5191V9.67218C4.43382 8.08483 4.91001 6.76204 5.86237 5.80963C6.76183 4.91014 8.13747 4.43393 9.72475 4.43393H20.624C22.2113 4.43393 23.534 4.91014 24.4864 5.86255C25.3859 6.81495 25.915 8.13774 25.915 9.67218V20.572Z" fill="white" fill-opacity="0.2"/>
</svg>
