<svg width="30" height="30" viewBox="0 0 30 30" fill="none" xmlns="http://www.w3.org/2000/svg">
<path fill-rule="evenodd" clip-rule="evenodd" d="M7.52081 4.96559C9.07685 3.80533 10.9129 2.99975 12.9092 2.66859C11.9222 3.77768 11.0751 5.09562 10.402 6.5683C9.36671 6.16188 8.39944 5.62069 7.52081 4.96559ZM6.34846 5.95716C7.4002 6.78266 8.57274 7.4595 9.83551 7.95735C9.1453 9.86896 8.73099 11.9876 8.6547 14.2141H2.52219C2.71457 10.9728 4.14557 8.06493 6.34846 5.95716ZM2.52219 15.7141C2.71479 18.9594 4.14912 21.8705 6.35667 23.9789C7.40664 23.1553 8.57717 22.4774 9.83793 21.9776C9.14627 20.0642 8.73107 17.9432 8.65469 15.7141H2.52219ZM10.1556 15.7141C10.2319 17.796 10.6239 19.753 11.2604 21.5011C12.4393 21.1761 13.6811 21.0021 14.9641 21.0021C16.2472 21.0021 17.4889 21.1761 18.6678 21.5011C19.3043 19.753 19.6963 17.796 19.7726 15.7141H10.1556ZM21.2735 15.7141C21.1971 17.9432 20.7819 20.0642 20.0903 21.9775C21.351 22.4773 22.5216 23.1553 23.5716 23.9789C25.7791 21.8705 27.2134 18.9594 27.406 15.7141H21.2735ZM27.406 14.2141H21.2735C21.1971 11.985 20.7819 9.86404 20.0903 7.95069C21.351 7.45091 22.5216 6.77295 23.5716 5.94934C25.7791 8.05773 27.2134 10.9688 27.406 14.2141ZM19.7726 14.2141H10.1556C10.2318 12.1338 10.6233 10.1782 11.2589 8.43117C12.4386 8.75401 13.6808 8.92614 14.9641 8.92614C16.2472 8.92614 17.4889 8.75214 18.6678 8.42717C19.3043 10.1752 19.6963 12.1322 19.7726 14.2141ZM7.53023 24.9696C8.40746 24.3159 9.37254 23.7741 10.4049 23.3664C11.0776 24.8365 11.9236 26.1522 12.9092 27.2596C10.9169 26.9291 9.08426 26.1261 7.53023 24.9696ZM14.968 28.9282L14.9628 28.9282C7.25126 28.9275 1 22.6759 1 14.9641C1 7.2526 7.25089 1.00106 14.9622 1L14.9641 1L14.966 1C22.6773 1.00104 28.9282 7.25259 28.9282 14.9641C28.9282 22.675 22.6784 28.9261 14.968 28.9282ZM19.5233 6.56188C18.8506 5.09179 18.0045 3.77606 17.0189 2.66858C19.0113 2.99906 20.844 3.80208 22.398 4.9586C21.5208 5.61241 20.5557 6.15417 19.5233 6.56188ZM22.398 24.9696C21.5208 24.3158 20.5557 23.7741 19.5233 23.3663C18.8506 24.8364 18.0045 26.1522 17.0189 27.2596C19.0113 26.9292 20.844 26.1261 22.398 24.9696ZM14.9641 27.199C16.2022 26.096 17.2717 24.6286 18.0866 22.8984C17.0892 22.6398 16.0431 22.5021 14.9641 22.5021C13.8851 22.5021 12.839 22.6398 11.8415 22.8984C12.6565 24.6286 13.7259 26.096 14.9641 27.199ZM14.9641 2.72923C16.2022 3.83223 17.2717 5.29959 18.0866 7.02986C17.0892 7.2884 16.0431 7.42614 14.9641 7.42614C13.8843 7.42614 12.8376 7.28993 11.8399 7.03342C12.655 5.3016 13.7251 3.83299 14.9641 2.72923Z" fill="white" fill-opacity="0.2"/>
</svg>
