<svg width="30" height="30" viewBox="0 0 30 30" fill="none" xmlns="http://www.w3.org/2000/svg">
<path fill-rule="evenodd" clip-rule="evenodd" d="M25.2013 1.5C27.0219 1.5 28.5 2.97814 28.5 4.79875V25.2013C28.5 27.0219 27.0219 28.5 25.2013 28.5H19.5867V18.3267H23.0988L23.7671 13.9698H19.5867V11.1423C19.5867 9.95037 20.1707 8.78847 22.0431 8.78847H23.9438V5.07913C23.9438 5.07913 22.2188 4.78477 20.5697 4.78477C17.1268 4.78477 14.8765 6.87142 14.8765 10.649V13.9698H11.0494V18.3267H14.8765V28.5H4.79875C2.97814 28.5 1.5 27.0219 1.5 25.2013V4.79875C1.5 2.97814 2.97809 1.5 4.79875 1.5H25.2013V1.5Z" fill="white" fill-opacity="0.2"/>
</svg>
