<svg width="30" height="30" viewBox="0 0 30 30" fill="none" xmlns="http://www.w3.org/2000/svg">
<path d="M20.8991 13.4966C18.9656 13.4966 18.697 15.4264 18.697 15.4264H22.8076C22.8076 15.4264 22.8338 13.4966 20.8991 13.4966Z" fill="white" fill-opacity="0.2"/>
<path d="M11.5729 15.4264H7.92886V18.7719H11.155C11.2098 18.7719 11.292 18.7731 11.3883 18.7719C11.9073 18.7597 12.8911 18.6087 12.8911 17.1455C12.8911 15.4087 11.5729 15.4264 11.5729 15.4264Z" fill="white" fill-opacity="0.2"/>
<path d="M15.0006 0C6.71601 0 0 6.71479 0 14.9994C0 23.284 6.71601 30 15.0006 30C23.284 30 30 23.284 30 14.9994C30 6.7154 23.2834 0 15.0006 0ZM18.1579 9.21662H23.3218V10.7578H18.1579V9.21662ZM15.5476 17.3014C15.5476 21.1215 11.5729 20.9954 11.5729 20.9954H7.92885H7.82225H5.0597V8.47953H7.82225H7.92885H11.5729C13.5514 8.47953 15.1133 9.57237 15.1133 11.8116C15.1133 14.0509 13.2036 14.1935 13.2036 14.1935C15.7212 14.1935 15.5476 17.3014 15.5476 17.3014ZM25.2077 17.0967H18.722C18.722 19.4213 20.9241 19.2751 20.9241 19.2751C23.0038 19.2751 22.9313 17.9282 22.9313 17.9282H25.1346C25.1346 21.5022 20.8504 21.2573 20.8504 21.2573C15.7115 21.2573 16.0423 16.4723 16.0423 16.4723C16.0423 16.4723 16.0374 11.6642 20.8504 11.6642C25.9168 11.6642 25.2077 17.0967 25.2077 17.0967Z" fill="white" fill-opacity="0.2"/>
<path d="M12.458 12.0059C12.458 10.7042 11.5729 10.7042 11.5729 10.7042H11.1038H7.92886V13.4966H11.3469C11.9365 13.4966 12.458 13.3071 12.458 12.0059Z" fill="white" fill-opacity="0.2"/>
</svg>
