<svg width="130" height="28" viewBox="0 0 130 28" fill="none" xmlns="http://www.w3.org/2000/svg">
    <path fill-rule="evenodd" clip-rule="evenodd" d="M14 8.59693L6.93893 21.3483H21.061L14 8.59693ZM15.613 3.76775C14.8985 2.47744 13.1015 2.47744 12.387 3.76775L2.11587 22.316C1.4049 23.5999 2.29983 25.2 3.72888 25.2H24.2711C25.7001 25.2 26.5951 23.5999 25.8841 22.316L15.613 3.76775Z" fill="current" fill-opacity="current" />
    <path fill-rule="evenodd" clip-rule="evenodd" d="M47.8333 19.4031L54.8944 6.65178L40.7723 6.65178L47.8333 19.4031ZM46.2203 24.2323C46.9348 25.5226 48.7318 25.5226 49.4463 24.2323L59.7175 5.68405C60.4284 4.40013 59.5335 2.80001 58.1044 2.80001L37.5622 2.80001C36.1332 2.80001 35.2382 4.40013 35.9492 5.68404L46.2203 24.2323Z" fill="current" fill-opacity="current" />
    <path d="M87.2667 7.46667C87.2667 10.5595 84.7595 13.0667 81.6667 13.0667C78.5739 13.0667 76.0667 10.5595 76.0667 7.46667C76.0667 4.37387 78.5739 1.86667 81.6667 1.86667C84.7595 1.86667 87.2667 4.37387 87.2667 7.46667Z" fill="current" fill-opacity="current" />
    <path d="M94.7333 20.5333C94.7333 23.6261 92.2261 26.1333 89.1333 26.1333C86.0405 26.1333 83.5333 23.6261 83.5333 20.5333C83.5333 17.4405 86.0405 14.9333 89.1333 14.9333C92.2261 14.9333 94.7333 17.4405 94.7333 20.5333Z" fill="current" fill-opacity="current" />
    <path d="M79.8 20.5333C79.8 23.6261 77.2928 26.1333 74.2 26.1333C71.1072 26.1333 68.6 23.6261 68.6 20.5333C68.6 17.4405 71.1072 14.9333 74.2 14.9333C77.2928 14.9333 79.8 17.4405 79.8 20.5333Z" fill="current" fill-opacity="current" />
    <path fill-rule="evenodd" clip-rule="evenodd" d="M107.583 14L115.633 22.0496L123.682 14L115.633 5.95036L107.583 14ZM103.721 12.7126L114.345 2.08809C115.056 1.37707 116.209 1.37707 116.92 2.0881L127.545 12.7126C128.256 13.4236 128.256 14.5764 127.545 15.2874L116.92 25.9119C116.209 26.6229 115.056 26.6229 114.345 25.9119L103.721 15.2874C103.01 14.5764 103.01 13.4236 103.721 12.7126Z" fill="current" fill-opacity="current" />
</svg>