<svg width="32" height="32" viewBox="0 0 32 32" fill="none" xmlns="http://www.w3.org/2000/svg">
<path fill-rule="evenodd" clip-rule="evenodd" d="M5.95345 16.5364L5.86717 16.6721C5.79113 16.7892 5.87537 16.9453 6.01921 16.9453H11.3699C11.4295 16.9453 11.485 16.9166 11.5179 16.8673C11.5878 16.7604 11.6535 16.6495 11.7131 16.5364C12.1754 15.7597 12.5864 14.9193 12.7364 14.2987C13.0878 12.7905 12.3378 10.3679 11.4686 8.4199C11.411 8.29046 11.2323 8.27814 11.1562 8.3973L5.95345 16.5364ZM29.0578 18.1844V19.4728C29.0578 19.5467 29.0126 19.6125 28.9468 19.6412C28.5441 19.8138 27.1653 20.4467 26.592 21.244C26.2731 21.6879 25.9705 22.1734 25.6665 22.6613C24.576 24.4114 23.4665 26.192 21.5125 26.192H11.0884C7.39387 26.192 4.39999 23.1879 4.39999 19.481V19.3618C4.39999 19.2632 4.48011 19.183 4.57875 19.183H10.3898C10.5048 19.183 10.5891 19.2899 10.5788 19.4029C10.5377 19.781 10.6076 20.1673 10.7864 20.5186C11.1316 21.2194 11.8466 21.657 12.6192 21.657H15.496V19.4111H12.6521C12.5062 19.4111 12.42 19.2426 12.5042 19.1234C12.5213 19.0972 12.5396 19.0704 12.5589 19.0422C12.5744 19.0196 12.5905 18.9961 12.6069 18.9714C12.8761 18.5892 13.2604 17.9954 13.6426 17.3193C13.9035 16.8632 14.1562 16.3762 14.3597 15.8871C14.3974 15.806 14.4282 15.7232 14.4584 15.6418L14.4665 15.62C14.481 15.5791 14.4957 15.539 14.5101 15.4994C14.551 15.3875 14.5903 15.2798 14.6206 15.172C14.6542 15.0714 14.6822 14.9667 14.7093 14.8657L14.7275 14.798C14.8241 14.383 14.8652 13.9432 14.8652 13.4871C14.8652 13.3083 14.857 13.1213 14.8405 12.9426C14.8323 12.7474 14.8076 12.5521 14.783 12.3569C14.7665 12.1843 14.7357 12.0138 14.7028 11.835C14.6618 11.574 14.6042 11.3152 14.5384 11.0542L14.5158 10.9556C14.5012 10.9024 14.4873 10.8501 14.4734 10.798C14.4407 10.6748 14.4083 10.553 14.3679 10.4275C14.2056 9.86648 14.0186 9.31992 13.8213 8.80828C13.7494 8.60485 13.6672 8.40966 13.585 8.21447C13.4897 7.98351 13.3932 7.76903 13.3013 7.56509L13.3008 7.56386C13.2759 7.50875 13.2515 7.45441 13.2275 7.40072C13.17 7.28564 13.1206 7.18084 13.0713 7.074C13.0158 6.95276 12.9583 6.83152 12.9008 6.71648C12.8846 6.68176 12.8675 6.64799 12.8507 6.6148C12.8247 6.56353 12.7995 6.51361 12.7795 6.46372L12.4282 5.8144C12.3788 5.72604 12.461 5.62124 12.5576 5.64796L14.7563 6.24384H14.7624C14.7648 6.24384 14.7679 6.24514 14.7679 6.24514L14.7695 6.24572L14.7706 6.24592L15.0604 6.32604L15.3789 6.41648L15.496 6.44932V5.14248C15.496 4.51164 16.0015 4 16.6262 4C16.9385 4 17.222 4.1274 17.4255 4.33492C17.6289 4.54248 17.7563 4.82604 17.7563 5.14248V7.08224L17.9906 7.14796C18.009 7.15416 18.0275 7.16236 18.044 7.17468C18.0663 7.19142 18.0923 7.21125 18.1219 7.23381C18.1687 7.26941 18.2243 7.31183 18.2885 7.35964C18.3218 7.38625 18.356 7.41522 18.3922 7.44574C18.4453 7.4906 18.5023 7.5388 18.5659 7.58772C18.7775 7.75824 19.0303 7.97812 19.3077 8.23088C19.3816 8.29456 19.4536 8.36032 19.5193 8.42608C19.8769 8.75896 20.2776 9.14936 20.6598 9.58088C20.7666 9.70212 20.8714 9.8254 20.9782 9.95484C21.0161 10.0014 21.0547 10.0477 21.0931 10.0939C21.1633 10.178 21.233 10.2616 21.2967 10.3453C21.3206 10.3771 21.3448 10.4092 21.3692 10.4414C21.4771 10.5841 21.5883 10.7311 21.6872 10.8836C21.7122 10.9221 21.7388 10.9609 21.7654 10.9998C21.8 11.0503 21.8346 11.1009 21.8659 11.1508C22.0221 11.387 22.1598 11.6316 22.2913 11.8761C22.3468 11.9891 22.4043 12.1124 22.4536 12.2336C22.5995 12.5604 22.7146 12.8932 22.7885 13.2261C22.8111 13.298 22.8276 13.3761 22.8358 13.446V13.4624C22.8604 13.561 22.8687 13.6658 22.8769 13.7727C22.9098 14.1138 22.8933 14.4549 22.8194 14.798C22.7885 14.944 22.7474 15.0816 22.6981 15.2275L22.6816 15.2745C22.6376 15.3997 22.5924 15.5285 22.5358 15.6508C22.4125 15.9364 22.2666 16.222 22.094 16.4892C22.0385 16.5878 21.9728 16.6926 21.907 16.7912C21.8719 16.8424 21.8363 16.892 21.8014 16.9407C21.7649 16.9917 21.729 17.0418 21.6954 17.0912C21.605 17.2145 21.5084 17.344 21.4098 17.459C21.3214 17.5803 21.231 17.7015 21.1324 17.8084C20.9947 17.9707 20.8632 18.1248 20.7255 18.2728C20.6433 18.3693 20.555 18.468 20.4645 18.5563C20.3888 18.6408 20.3115 18.7178 20.2392 18.7899L20.2036 18.8255C20.0659 18.9632 19.9508 19.07 19.8542 19.1584L19.6282 19.3659C19.5954 19.3947 19.5522 19.4111 19.507 19.4111H17.7563V21.657H19.959C20.4522 21.657 20.9207 21.4824 21.2988 21.1618L21.309 21.1529C21.4557 21.0249 22.0095 20.5419 22.6611 19.8221C22.6837 19.7974 22.7125 19.7789 22.7454 19.7707L28.8297 18.0118C28.9427 17.9789 29.0578 18.0652 29.0578 18.1844Z" fill="white" fill-opacity="0.9"/>
</svg>
