<svg width="184" height="50" viewBox="0 0 184 50" fill="none" xmlns="http://www.w3.org/2000/svg">
<path d="M0 25C0 11.1929 11.1929 0 25 0H159C172.807 0 184 11.1929 184 25C184 38.8071 172.807 50 159 50H25C11.1929 50 0 38.8071 0 25Z" fill="white" fill-opacity="0.9"/>
<path fill-rule="evenodd" clip-rule="evenodd" d="M32 15C32 14.4477 31.5523 14 31 14C30.4477 14 30 14.4477 30 15V24H21C20.4477 24 20 24.4477 20 25C20 25.5523 20.4477 26 21 26H30V35C30 35.5523 30.4477 36 31 36C31.5523 36 32 35.5523 32 35V26H41C41.5523 26 42 25.5523 42 25C42 24.4477 41.5523 24 41 24H32V15Z" fill="#510EAC"/>
<path d="M71.472 19.62V31.5H69.24V25.308L69.348 21.834H69.312L66.018 31.5H63.984L60.708 21.834H60.672L60.798 25.308V31.5H58.548V19.62H62.148L64.29 26.1L65.046 28.782H65.082L65.856 26.118L67.98 19.62H71.472ZM74.5617 31.5V19.62H83.4717V21.618H77.0457V24.57H82.1037V26.478H77.0457V29.502H83.7237V31.5H74.5617ZM95.3483 19.62V21.618H91.3703V31.5H88.8863V21.618H84.8903V19.62H95.3483ZM94.5168 31.5L98.8548 19.62H101.825L106.163 31.5H103.589L102.599 28.602H98.0268L97.0548 31.5H94.5168ZM99.7908 23.382L98.6388 26.766H101.987L100.871 23.418L100.331 21.618H100.295L99.7908 23.382ZM120.849 19.62V31.5H118.617V25.308L118.725 21.834H118.689L115.395 31.5H113.361L110.085 21.834H110.049L110.175 25.308V31.5H107.925V19.62H111.525L113.667 26.1L114.423 28.782H114.459L115.233 26.118L117.357 19.62H120.849ZM122.607 31.5L126.945 19.62H129.915L134.253 31.5H131.679L130.689 28.602H126.117L125.145 31.5H122.607ZM127.881 23.382L126.729 26.766H130.077L128.961 23.418L128.421 21.618H128.385L127.881 23.382ZM140.265 19.44C141.345 19.44 142.293 19.626 143.109 19.998C143.925 20.37 144.621 20.922 145.197 21.654L143.811 23.256C143.319 22.632 142.779 22.176 142.191 21.888C141.615 21.588 140.943 21.438 140.175 21.438C139.407 21.438 138.849 21.582 138.501 21.87C138.153 22.146 137.979 22.482 137.979 22.878C137.979 23.202 138.099 23.478 138.339 23.706C138.591 23.922 139.029 24.102 139.653 24.246L141.867 24.75C143.031 25.014 143.871 25.41 144.387 25.938C144.903 26.454 145.161 27.126 145.161 27.954C145.161 28.734 144.957 29.406 144.549 29.97C144.141 30.522 143.571 30.948 142.839 31.248C142.107 31.536 141.267 31.68 140.319 31.68C139.083 31.68 137.997 31.464 137.061 31.032C136.125 30.6 135.387 30.042 134.847 29.358L136.251 27.684C136.659 28.26 137.217 28.74 137.925 29.124C138.645 29.496 139.443 29.682 140.319 29.682C141.051 29.682 141.615 29.562 142.011 29.322C142.407 29.07 142.605 28.716 142.605 28.26C142.605 27.96 142.497 27.696 142.281 27.468C142.077 27.24 141.693 27.066 141.129 26.946L138.717 26.406C137.661 26.178 136.845 25.806 136.269 25.29C135.693 24.774 135.405 24.072 135.405 23.184C135.405 22.476 135.597 21.84 135.981 21.276C136.365 20.712 136.917 20.268 137.637 19.944C138.369 19.608 139.245 19.44 140.265 19.44ZM149.995 19.62V25.254L154.873 19.62H157.753L153.487 24.462L157.897 31.5H155.053L151.687 26.064L149.995 27.99V31.5H147.511V19.62H149.995Z" fill="#510EAC"/>
</svg>
