<svg width="26" height="26" viewBox="0 0 26 26" fill="none" xmlns="http://www.w3.org/2000/svg">
<path d="M19.3842 7.17858H19.3839H19.0477C18.9809 5.72303 18.3493 4.34228 17.2747 3.31072C16.1392 2.22067 14.6019 1.60911 13.0003 1.60715L12.9997 1.60715C11.3981 1.60896 9.86064 2.22047 8.72513 3.31056C7.65056 4.34215 7.01893 5.72298 6.9523 7.17858H6.61608H6.61579C5.78348 7.17953 4.9836 7.49727 4.39209 8.06512C3.80024 8.6333 3.4653 9.40587 3.46429 10.214V10.2143L3.46429 21.3571L3.46429 21.3575C3.4653 22.1656 3.80024 22.9381 4.39209 23.5063C4.9836 24.0742 5.78348 24.3919 6.61579 24.3929H6.61608H19.3839H19.3842C20.2165 24.3919 21.0164 24.0742 21.6079 23.5063C22.1998 22.9381 22.5347 22.1656 22.5357 21.3575V21.3571V10.2143V10.214C22.5347 9.40587 22.1998 8.6333 21.6079 8.06512C21.0164 7.49727 20.2165 7.17953 19.3842 7.17858ZM20.4414 9.21331L20.6145 9.03297L20.4414 9.21331C20.7199 9.4807 20.8746 9.84102 20.875 10.2146V21.3569C20.8746 21.7304 20.7199 22.0907 20.4414 22.3581C20.1625 22.6258 19.7823 22.7781 19.3837 22.7786H6.61635C6.21775 22.7781 5.83754 22.6258 5.55867 22.3581L5.38553 22.5385L5.55867 22.3581C5.28016 22.0908 5.12548 21.7305 5.12501 21.357C5.12501 21.3569 5.12501 21.3569 5.12501 21.3569V10.2146C5.12501 10.2146 5.12501 10.2145 5.12501 10.2145C5.12548 9.84095 5.28016 9.48068 5.55867 9.21331C5.83754 8.94559 6.21775 8.79329 6.61635 8.79286H19.3837C19.7823 8.79329 20.1625 8.94559 20.4414 9.21331ZM13 3.22143C14.1677 3.22322 15.2851 3.66942 16.1078 4.45923C16.8683 5.18933 17.3196 6.15764 17.3847 7.17858H8.61521C8.67986 6.15748 9.13105 5.18891 9.89167 4.45871C10.7145 3.66882 11.8321 3.22277 13 3.22143Z" fill="#510EAC" stroke="#510EAC" stroke-width="0.5"/>
<path d="M16.683 11.8526L16.5336 12.0518L16.683 11.8526C16.518 11.7289 16.3061 11.6667 16.0952 11.6667H9.90475C9.69392 11.6667 9.48198 11.7289 9.31702 11.8526C9.15068 11.9774 9.03571 12.1645 9.03571 12.3809C9.03571 12.5974 9.15068 12.7845 9.31702 12.9092C9.48198 13.033 9.69392 13.0952 9.90475 13.0952H16.0952C16.3061 13.0952 16.518 13.033 16.683 12.9092L16.533 12.7092L16.683 12.9092C16.8493 12.7845 16.9643 12.5974 16.9643 12.3809C16.9643 12.1645 16.8493 11.9774 16.683 11.8526Z" fill="#510EAC" stroke="#510EAC" stroke-width="0.5"/>
</svg>
