<svg width="238" height="50" viewBox="0 0 238 50" fill="none" xmlns="http://www.w3.org/2000/svg">
<path d="M0 25C0 11.1929 11.1929 0 25 0H213C226.807 0 238 11.1929 238 25C238 38.8071 226.807 50 213 50H25C11.1929 50 0 38.8071 0 25Z" fill="#510EAC"/>
<path fill-rule="evenodd" clip-rule="evenodd" d="M20.9535 25.5364L20.8672 25.6721C20.7911 25.7892 20.8754 25.9453 21.0192 25.9453H26.3699C26.4295 25.9453 26.485 25.9166 26.5179 25.8673C26.5878 25.7604 26.6535 25.6495 26.7131 25.5364C27.1754 24.7597 27.5864 23.9193 27.7364 23.2987C28.0878 21.7905 27.3378 19.3679 26.4686 17.4199C26.411 17.2905 26.2323 17.2781 26.1562 17.3973L20.9535 25.5364ZM44.0578 27.1844V28.4728C44.0578 28.5467 44.0126 28.6125 43.9468 28.6412C43.5441 28.8138 42.1653 29.4467 41.592 30.244C41.2731 30.6879 40.9705 31.1734 40.6665 31.6613C39.576 33.4114 38.4665 35.192 36.5125 35.192H26.0884C22.3939 35.192 19.4 32.1879 19.4 28.481V28.3618C19.4 28.2632 19.4801 28.183 19.5788 28.183H25.3898C25.5048 28.183 25.5891 28.2899 25.5788 28.4029C25.5377 28.781 25.6076 29.1673 25.7864 29.5186C26.1316 30.2194 26.8466 30.657 27.6192 30.657H30.496V28.4111H27.6521C27.5062 28.4111 27.42 28.2426 27.5042 28.1234C27.5213 28.0972 27.5396 28.0704 27.5589 28.0422C27.5744 28.0196 27.5905 27.9961 27.6069 27.9714C27.8761 27.5892 28.2604 26.9954 28.6426 26.3193C28.9035 25.8632 29.1562 25.3762 29.3597 24.8871C29.3974 24.806 29.4282 24.7232 29.4584 24.6418L29.4665 24.62C29.481 24.5791 29.4957 24.539 29.5101 24.4994C29.551 24.3875 29.5903 24.2798 29.6206 24.172C29.6542 24.0714 29.6822 23.9667 29.7093 23.8657L29.7275 23.798C29.8241 23.383 29.8652 22.9432 29.8652 22.4871C29.8652 22.3083 29.857 22.1213 29.8405 21.9426C29.8323 21.7474 29.8076 21.5521 29.783 21.3569C29.7665 21.1843 29.7357 21.0138 29.7028 20.835C29.6618 20.574 29.6042 20.3152 29.5384 20.0542L29.5158 19.9556C29.5012 19.9024 29.4873 19.8501 29.4734 19.798C29.4407 19.6748 29.4083 19.553 29.3679 19.4275C29.2056 18.8665 29.0186 18.3199 28.8213 17.8083C28.7494 17.6048 28.6672 17.4097 28.585 17.2145C28.4897 16.9835 28.3932 16.769 28.3013 16.5651L28.3008 16.5639C28.2759 16.5088 28.2515 16.4544 28.2275 16.4007C28.17 16.2856 28.1206 16.1808 28.0713 16.074C28.0158 15.9528 27.9583 15.8315 27.9008 15.7165C27.8846 15.6818 27.8675 15.648 27.8507 15.6148C27.8247 15.5635 27.7995 15.5136 27.7795 15.4637L27.4282 14.8144C27.3788 14.726 27.461 14.6212 27.5576 14.648L29.7563 15.2438H29.7624C29.7648 15.2438 29.7679 15.2451 29.7679 15.2451L29.7695 15.2457L29.7706 15.2459L30.0604 15.326L30.3789 15.4165L30.496 15.4493V14.1425C30.496 13.5116 31.0015 13 31.6262 13C31.9385 13 32.222 13.1274 32.4255 13.3349C32.6289 13.5425 32.7563 13.826 32.7563 14.1425V16.0822L32.9906 16.148C33.009 16.1542 33.0275 16.1624 33.044 16.1747C33.0663 16.1914 33.0923 16.2113 33.1219 16.2338C33.1687 16.2694 33.2243 16.3118 33.2885 16.3596C33.3218 16.3862 33.356 16.4152 33.3922 16.4457C33.4453 16.4906 33.5023 16.5388 33.5659 16.5877C33.7775 16.7582 34.0303 16.9781 34.3077 17.2309C34.3816 17.2946 34.4536 17.3603 34.5193 17.4261C34.8769 17.759 35.2776 18.1494 35.6598 18.5809C35.7666 18.7021 35.8714 18.8254 35.9782 18.9548C36.0161 19.0014 36.0547 19.0477 36.0931 19.0939C36.1633 19.178 36.233 19.2616 36.2967 19.3453C36.3206 19.3771 36.3448 19.4092 36.3692 19.4414C36.4771 19.5841 36.5883 19.7311 36.6872 19.8836C36.7122 19.9221 36.7388 19.9609 36.7654 19.9998C36.8 20.0503 36.8346 20.1009 36.8659 20.1508C37.0221 20.387 37.1598 20.6316 37.2913 20.8761C37.3468 20.9891 37.4043 21.1124 37.4536 21.2336C37.5995 21.5604 37.7146 21.8932 37.7885 22.2261C37.8111 22.298 37.8276 22.3761 37.8358 22.446V22.4624C37.8604 22.561 37.8687 22.6658 37.8769 22.7727C37.9098 23.1138 37.8933 23.4549 37.8194 23.798C37.7885 23.944 37.7474 24.0816 37.6981 24.2275L37.6816 24.2745C37.6376 24.3997 37.5924 24.5285 37.5358 24.6508C37.4125 24.9364 37.2666 25.222 37.094 25.4892C37.0385 25.5878 36.9728 25.6926 36.907 25.7912C36.8719 25.8424 36.8363 25.892 36.8014 25.9407C36.7649 25.9917 36.729 26.0418 36.6954 26.0912C36.605 26.2145 36.5084 26.344 36.4098 26.459C36.3214 26.5803 36.231 26.7015 36.1324 26.8084C35.9947 26.9707 35.8632 27.1248 35.7255 27.2728C35.6433 27.3693 35.555 27.468 35.4645 27.5563C35.3888 27.6408 35.3115 27.7178 35.2392 27.7899L35.2036 27.8255C35.0659 27.9632 34.9508 28.07 34.8542 28.1584L34.6282 28.3659C34.5954 28.3947 34.5522 28.4111 34.507 28.4111H32.7563V30.657H34.959C35.4522 30.657 35.9207 30.4824 36.2988 30.1618L36.309 30.1529C36.4557 30.0249 37.0095 29.5419 37.6611 28.8221C37.6837 28.7974 37.7125 28.7789 37.7454 28.7707L43.8297 27.0118C43.9427 26.9789 44.0578 27.0652 44.0578 27.1844Z" fill="white"/>
<path d="M68.754 19.62V31.5H65.91L61.752 24.516L60.726 22.572H60.708L60.78 24.624V31.5H58.548V19.62H61.374L65.532 26.586L66.558 28.548H66.594L66.522 26.496V19.62H68.754ZM80.7466 21.618H74.3386V24.624H79.3966V26.64H74.3386V31.5H71.8546V19.62H80.7466V21.618ZM92.2721 19.62V21.618H88.2941V31.5H85.8101V21.618H81.8141V19.62H92.2721ZM109.587 28.224C109.227 29.388 108.597 30.258 107.697 30.834C106.797 31.398 105.747 31.68 104.547 31.68C103.371 31.68 102.351 31.434 101.487 30.942C100.635 30.45 99.9751 29.748 99.5071 28.836C99.0511 27.924 98.8231 26.832 98.8231 25.56C98.8231 24.288 99.0571 23.196 99.5251 22.284C99.9931 21.372 100.653 20.67 101.505 20.178C102.357 19.686 103.359 19.44 104.511 19.44C105.723 19.44 106.761 19.698 107.625 20.214C108.501 20.718 109.101 21.486 109.425 22.518L107.175 23.472C106.971 22.752 106.659 22.242 106.239 21.942C105.819 21.63 105.279 21.474 104.619 21.474C103.635 21.474 102.849 21.828 102.261 22.536C101.685 23.232 101.397 24.24 101.397 25.56C101.397 26.868 101.673 27.876 102.225 28.584C102.777 29.292 103.575 29.646 104.619 29.646C105.267 29.646 105.825 29.472 106.293 29.124C106.773 28.776 107.109 28.248 107.301 27.54L109.587 28.224ZM116.834 19.44C118.01 19.44 119.024 19.686 119.876 20.178C120.728 20.67 121.382 21.372 121.838 22.284C122.306 23.196 122.54 24.288 122.54 25.56C122.54 26.832 122.306 27.924 121.838 28.836C121.382 29.748 120.728 30.45 119.876 30.942C119.024 31.434 118.01 31.68 116.834 31.68C115.658 31.68 114.638 31.434 113.774 30.942C112.922 30.45 112.262 29.748 111.794 28.836C111.338 27.924 111.11 26.832 111.11 25.56C111.11 24.288 111.338 23.196 111.794 22.284C112.262 21.372 112.922 20.67 113.774 20.178C114.638 19.686 115.658 19.44 116.834 19.44ZM116.834 21.474C115.826 21.474 115.046 21.828 114.494 22.536C113.954 23.232 113.684 24.24 113.684 25.56C113.684 26.88 113.954 27.894 114.494 28.602C115.046 29.298 115.826 29.646 116.834 29.646C117.83 29.646 118.598 29.298 119.138 28.602C119.69 27.894 119.966 26.88 119.966 25.56C119.966 24.24 119.69 23.232 119.138 22.536C118.598 21.828 117.83 21.474 116.834 21.474ZM127.53 29.502H133.794V31.5H125.046V19.62H127.53V29.502ZM138.341 29.502H144.605V31.5H135.857V19.62H138.341V29.502ZM146.667 31.5V19.62H155.577V21.618H149.151V24.57H154.209V26.478H149.151V29.502H155.829V31.5H146.667ZM168.07 28.224C167.71 29.388 167.08 30.258 166.18 30.834C165.28 31.398 164.23 31.68 163.03 31.68C161.854 31.68 160.834 31.434 159.97 30.942C159.118 30.45 158.458 29.748 157.99 28.836C157.534 27.924 157.306 26.832 157.306 25.56C157.306 24.288 157.54 23.196 158.008 22.284C158.476 21.372 159.136 20.67 159.988 20.178C160.84 19.686 161.842 19.44 162.994 19.44C164.206 19.44 165.244 19.698 166.108 20.214C166.984 20.718 167.584 21.486 167.908 22.518L165.658 23.472C165.454 22.752 165.142 22.242 164.722 21.942C164.302 21.63 163.762 21.474 163.102 21.474C162.118 21.474 161.332 21.828 160.744 22.536C160.168 23.232 159.88 24.24 159.88 25.56C159.88 26.868 160.156 27.876 160.708 28.584C161.26 29.292 162.058 29.646 163.102 29.646C163.75 29.646 164.308 29.472 164.776 29.124C165.256 28.776 165.592 28.248 165.784 27.54L168.07 28.224ZM179.583 19.62V21.618H175.605V31.5H173.121V21.618H169.125V19.62H179.583ZM184.096 19.62V31.5H181.612V19.62H184.096ZM192.315 19.44C193.491 19.44 194.505 19.686 195.357 20.178C196.209 20.67 196.863 21.372 197.319 22.284C197.787 23.196 198.021 24.288 198.021 25.56C198.021 26.832 197.787 27.924 197.319 28.836C196.863 29.748 196.209 30.45 195.357 30.942C194.505 31.434 193.491 31.68 192.315 31.68C191.139 31.68 190.119 31.434 189.255 30.942C188.403 30.45 187.743 29.748 187.275 28.836C186.819 27.924 186.591 26.832 186.591 25.56C186.591 24.288 186.819 23.196 187.275 22.284C187.743 21.372 188.403 20.67 189.255 20.178C190.119 19.686 191.139 19.44 192.315 19.44ZM192.315 21.474C191.307 21.474 190.527 21.828 189.975 22.536C189.435 23.232 189.165 24.24 189.165 25.56C189.165 26.88 189.435 27.894 189.975 28.602C190.527 29.298 191.307 29.646 192.315 29.646C193.311 29.646 194.079 29.298 194.619 28.602C195.171 27.894 195.447 26.88 195.447 25.56C195.447 24.24 195.171 23.232 194.619 22.536C194.079 21.828 193.311 21.474 192.315 21.474ZM210.733 19.62V31.5H207.889L203.731 24.516L202.705 22.572H202.687L202.759 24.624V31.5H200.527V19.62H203.353L207.511 26.586L208.537 28.548H208.573L208.501 26.496V19.62H210.733Z" fill="white"/>
</svg>
