<svg width="129" height="50" viewBox="0 0 129 50">
    <path d="M0 25C0 11.1929 11.1929 0 25 0H104C117.807 0 129 11.1929 129 25C129 38.8071 117.807 50 104 50H25C11.1929 50 0 38.8071 0 25Z" fill="white" />
    <path d="M37.3843 19.1786H37.384H37.0478C36.981 17.723 36.3493 16.3423 35.2748 15.3107C34.1393 14.2207 32.602 13.6091 31.0004 13.6071L30.9998 13.6071C29.3982 13.609 27.8607 14.2205 26.7252 15.3106C25.6506 16.3421 25.019 17.723 24.9524 19.1786H24.6161H24.6159C23.7835 19.1795 22.9837 19.4973 22.3922 20.0651C21.8003 20.6333 21.4654 21.4059 21.4644 22.214V22.2143L21.4644 33.3571L21.4644 33.3575C21.4654 34.1656 21.8003 34.9381 22.3922 35.5063C22.9837 36.0742 23.7835 36.3919 24.6159 36.3929H24.6161H37.384H37.3843C38.2166 36.3919 39.0165 36.0742 39.608 35.5063C40.1998 34.9381 40.5348 34.1656 40.5358 33.3575V33.3571V22.2143V22.214C40.5348 21.4059 40.1998 20.6333 39.608 20.0651C39.0165 19.4973 38.2166 19.1795 37.3843 19.1786ZM38.4414 21.2133L38.6145 21.033L38.4414 21.2133C38.7199 21.4807 38.8746 21.841 38.8751 22.2146V33.3569C38.8746 33.7304 38.7199 34.0907 38.4414 34.3581C38.1625 34.6258 37.7823 34.7781 37.3837 34.7786H24.6164C24.2178 34.7781 23.8376 34.6258 23.5587 34.3581L23.3856 34.5385L23.5587 34.3581C23.2802 34.0908 23.1255 33.7305 23.1251 33.357C23.1251 33.3569 23.1251 33.3569 23.1251 33.3569V22.2146C23.1251 22.2146 23.1251 22.2145 23.1251 22.2145C23.1255 21.841 23.2802 21.4807 23.5587 21.2133C23.8376 20.9456 24.2178 20.7933 24.6164 20.7929H37.3837C37.7823 20.7933 38.1625 20.9456 38.4414 21.2133ZM31 15.2214C32.1677 15.2232 33.2851 15.6694 34.1079 16.4592C34.8684 17.1893 35.3197 18.1576 35.3848 19.1786H26.6153C26.6799 18.1575 27.1311 17.1889 27.8917 16.4587C28.7145 15.6688 29.8322 15.2228 31 15.2214Z" fill="current" stroke="current" stroke-width="0.5" />
    <path d="M34.6829 23.8526L34.5335 24.0518L34.6829 23.8526C34.5179 23.7289 34.306 23.6667 34.0952 23.6667H27.9047C27.6939 23.6667 27.4819 23.7289 27.317 23.8526C27.1506 23.9774 27.0356 24.1645 27.0356 24.3809C27.0356 24.5974 27.1506 24.7845 27.317 24.9092C27.4819 25.033 27.6939 25.0952 27.9047 25.0952H34.0952C34.306 25.0952 34.5179 25.033 34.6829 24.9092L34.5329 24.7092L34.6829 24.9092C34.8492 24.7845 34.9642 24.5974 34.9642 24.3809C34.9642 24.1645 34.8492 23.9774 34.6829 23.8526Z" fill="current" stroke="current" stroke-width="0.5" />
    <path d="M59.886 19.44C60.966 19.44 61.914 19.626 62.73 19.998C63.546 20.37 64.242 20.922 64.818 21.654L63.432 23.256C62.94 22.632 62.4 22.176 61.812 21.888C61.236 21.588 60.564 21.438 59.796 21.438C59.028 21.438 58.47 21.582 58.122 21.87C57.774 22.146 57.6 22.482 57.6 22.878C57.6 23.202 57.72 23.478 57.96 23.706C58.212 23.922 58.65 24.102 59.274 24.246L61.488 24.75C62.652 25.014 63.492 25.41 64.008 25.938C64.524 26.454 64.782 27.126 64.782 27.954C64.782 28.734 64.578 29.406 64.17 29.97C63.762 30.522 63.192 30.948 62.46 31.248C61.728 31.536 60.888 31.68 59.94 31.68C58.704 31.68 57.618 31.464 56.682 31.032C55.746 30.6 55.008 30.042 54.468 29.358L55.872 27.684C56.28 28.26 56.838 28.74 57.546 29.124C58.266 29.496 59.064 29.682 59.94 29.682C60.672 29.682 61.236 29.562 61.632 29.322C62.028 29.07 62.226 28.716 62.226 28.26C62.226 27.96 62.118 27.696 61.902 27.468C61.698 27.24 61.314 27.066 60.75 26.946L58.338 26.406C57.282 26.178 56.466 25.806 55.89 25.29C55.314 24.774 55.026 24.072 55.026 23.184C55.026 22.476 55.218 21.84 55.602 21.276C55.986 20.712 56.538 20.268 57.258 19.944C57.99 19.608 58.866 19.44 59.886 19.44ZM69.616 19.62V24.498H74.854V19.62H77.338V31.5H74.854V26.496H69.616V31.5H67.132V19.62H69.616ZM85.5686 19.44C86.7446 19.44 87.7586 19.686 88.6106 20.178C89.4626 20.67 90.1166 21.372 90.5726 22.284C91.0406 23.196 91.2746 24.288 91.2746 25.56C91.2746 26.832 91.0406 27.924 90.5726 28.836C90.1166 29.748 89.4626 30.45 88.6106 30.942C87.7586 31.434 86.7446 31.68 85.5686 31.68C84.3926 31.68 83.3726 31.434 82.5086 30.942C81.6566 30.45 80.9966 29.748 80.5286 28.836C80.0726 27.924 79.8446 26.832 79.8446 25.56C79.8446 24.288 80.0726 23.196 80.5286 22.284C80.9966 21.372 81.6566 20.67 82.5086 20.178C83.3726 19.686 84.3926 19.44 85.5686 19.44ZM85.5686 21.474C84.5606 21.474 83.7806 21.828 83.2286 22.536C82.6886 23.232 82.4186 24.24 82.4186 25.56C82.4186 26.88 82.6886 27.894 83.2286 28.602C83.7806 29.298 84.5606 29.646 85.5686 29.646C86.5646 29.646 87.3326 29.298 87.8726 28.602C88.4246 27.894 88.7006 26.88 88.7006 25.56C88.7006 24.24 88.4246 23.232 87.8726 22.536C87.3326 21.828 86.5646 21.474 85.5686 21.474ZM98.7664 19.62C100.122 19.62 101.19 19.962 101.97 20.646C102.75 21.318 103.14 22.254 103.14 23.454C103.14 24.666 102.75 25.608 101.97 26.28C101.19 26.952 100.122 27.288 98.7664 27.288H96.2644V31.5H93.7804V19.62H98.7664ZM98.3884 25.326C99.8764 25.326 100.62 24.702 100.62 23.454C100.62 22.206 99.8764 21.582 98.3884 21.582H96.2644V25.326H98.3884Z" fill="current" />
    <clipPath id="shopSymbols"></clipPath>
</svg>